<!-- Generator: Adobe Illustrator 22.1.0, SVG Export Plug-In  -->
<svg version="1.1"
	 xmlns="http://www.w3.org/2000/svg" xmlns:xlink="http://www.w3.org/1999/xlink" xmlns:a="http://ns.adobe.com/AdobeSVGViewerExtensions/3.0/"
	 x="0px" y="0px" width="79.535px" height="79.178px" viewBox="0 0 79.535 79.178"
	 style="enable-background:new 0 0 79.535 79.178;" xml:space="preserve">
<style type="text/css">
	.st0{stroke:#000000;stroke-miterlimit:10;}
</style>
<defs>
</defs>
<rect x="11.317" y="26.748" class="st0" width="13.768" height="13.768"/>
<rect x="55.616" y="26.748" class="st0" width="13.768" height="13.768"/>
<rect x="51.3" y="9.859" transform="matrix(0.866 0.5 -0.5 0.866 14.8453 -31.0968)" class="st0" width="28.3" height="4.589"/>
<rect x="-0.065" y="7.451" transform="matrix(0.866 -0.5 0.5 0.866 -2.9857 8.348)" class="st0" width="28.3" height="4.589"/>
<rect x="11.226" y="65.319" transform="matrix(0.7071 -0.7071 0.7071 0.7071 -41.7784 35.8949)" class="st0" width="22.428" height="6.119"/>
<rect x="46.71" y="64.319" transform="matrix(0.7071 0.7071 -0.7071 0.7071 64.6092 -21.2237)" class="st0" width="22.428" height="6.119"/>
<rect x="35.178" y="64.319" transform="matrix(0.7071 -0.7071 0.7071 0.7071 -34.0559 52.5386)" class="st0" width="22.428" height="6.119"/>
<rect x="23.085" y="64.992" transform="matrix(0.7071 0.7071 -0.7071 0.7071 58.1656 -4.3211)" class="st0" width="22.428" height="6.119"/>
</svg>