<!-- Generator: Adobe Illustrator 22.1.0, SVG Export Plug-In  -->
<svg version="1.1"
	 xmlns="http://www.w3.org/2000/svg" xmlns:xlink="http://www.w3.org/1999/xlink" xmlns:a="http://ns.adobe.com/AdobeSVGViewerExtensions/3.0/"
	 x="0px" y="0px" width="67.726px" height="70.588px" viewBox="0 0 67.726 70.588"
	 style="enable-background:new 0 0 67.726 70.588;" xml:space="preserve">
<style type="text/css">
	.st0{stroke:#000000;stroke-miterlimit:10;}
	.st1{fill:#99C9CB;stroke:#99C9CD;stroke-miterlimit:10;}
</style>
<defs>
</defs>
<rect x="9.284" y="8.903" transform="matrix(1 0.0019 -0.0019 1 0.0336 -0.0342)" class="st0" width="16.601" height="16.601"/>
<rect x="42.418" y="8.994" transform="matrix(1 0.0019 -0.0019 1 0.0324 -0.0975)" class="st0" width="15.21" height="15.21"/>
<rect x="38.855" y="1.354" transform="matrix(0.9983 0.0585 -0.0585 0.9983 0.2372 -3.0972)" class="st0" width="28.3" height="2.295"/>
<rect x="0.592" y="2.625" transform="matrix(0.9944 -0.106 0.106 0.9944 -0.3168 1.5842)" class="st0" width="28.3" height="2.295"/>
<path class="st0" d="M40.962,65.128l-10.725-0.021c-6.997-0.014-12.658-5.697-12.644-12.693l0.01-5.19
	c0.014-6.997,5.697-12.658,12.693-12.644l10.725,0.021c6.997,0.014,12.658,5.697,12.644,12.693l-0.01,5.19
	C53.641,59.481,47.958,65.142,40.962,65.128z"/>
<path class="st1" d="M55.653,70.088H19.07c-2.18,0-3.947-1.767-3.947-3.947v-7.178c0-10.73,8.699-19.429,19.429-19.429h4.428
	c11.388,0,20.62,9.232,20.62,20.62v5.987C59.6,68.32,57.833,70.088,55.653,70.088z"/>
</svg>